<svg width="122" height="22" viewBox="0 0 122 22" fill="#CC5520" xmlns="http://www.w3.org/2000/svg">
<path d="M5.73101 12.1649V21.4503H1.52049V12.1649H0V8.90095H1.52049V6.42491C1.52049 5.01821 1.66677 3.41442 2.98248 2.06396C3.8304 1.19135 5.02925 0.628906 6.63753 0.628906C7.57312 0.628906 8.33325 0.797641 9.03524 1.05074V4.59613C8.56744 4.31468 7.95324 4.11783 7.42684 4.11783C6.7837 4.11783 6.37427 4.39928 6.1988 4.62426C5.73101 5.21529 5.73101 6.20005 5.73101 6.79073V8.90107H9.06442V12.165H5.73101V12.1649Z" fill="#CC5520"/>
<path d="M21.1284 19.8455C20.1456 20.971 18.4749 21.8717 16.3371 21.8717C14.1996 21.8717 12.5287 20.9711 11.5459 19.8455C10.4404 18.5792 9.89966 16.7784 9.89966 15.175C9.89966 13.5711 10.4404 11.7703 11.5459 10.504C12.5287 9.37854 14.1996 8.47827 16.3371 8.47827C18.4749 8.47827 20.1456 9.37842 21.1284 10.504C22.2342 11.7703 22.7746 13.5712 22.7746 15.175C22.7746 16.7786 22.2342 18.5793 21.1284 19.8455ZM14.3471 12.8112C13.8311 13.4021 13.5363 14.1617 13.5363 15.1749C13.5363 16.3285 13.9293 17.0599 14.3471 17.5382C14.7892 18.0446 15.4281 18.4387 16.3617 18.4387C17.1481 18.4387 17.8115 18.1291 18.3276 17.5382C18.8433 16.9472 19.1383 16.1878 19.1383 15.1749C19.1383 14.1617 18.8433 13.4021 18.3276 12.8112C17.8115 12.2205 17.1481 11.9111 16.3373 11.9111C15.5264 11.9111 14.863 12.2205 14.3472 12.8112H14.3471Z" fill="#CC5520"/>
<path d="M28.7702 14.6129L24.4212 8.90088H28.9422L30.9816 11.7991L33.0209 8.90088H37.5419L33.193 14.6129L38.5492 21.4502H33.979L30.9816 17.3984L27.984 21.4502H23.4139L28.7702 14.6129Z" fill="#CC5520"/>
<path d="M39.974 8.90113H43.512V10.3643C44.4211 8.78888 45.7479 8.59155 46.5833 8.59155C47.0503 8.59155 47.9103 8.64804 48.6473 9.15459C49.2124 9.5203 49.6794 10.1394 49.974 10.8992C50.2444 10.3924 50.6621 9.80175 51.3747 9.29519C52.1364 8.7604 52.8489 8.59155 53.7089 8.59155C55.0358 8.59155 56.1167 9.04186 56.7802 9.77374C57.8367 10.9273 57.9105 12.6154 57.9105 13.516V21.4505H54.3723V15.0914C54.3723 14.4443 54.3723 13.3187 53.9054 12.6434C53.6105 12.2216 53.1439 11.9681 52.6278 11.9681C52.0381 11.9681 51.5465 12.2777 51.2518 12.728C50.7849 13.4033 50.7112 14.388 50.7112 15.204V21.4503H47.1733V14.9225C47.1733 14.0783 47.1487 13.0935 46.6081 12.4744C46.2396 12.0526 45.7973 11.968 45.4288 11.968C44.9618 11.968 44.5443 12.1088 44.2003 12.4744C43.5368 13.2062 43.5122 14.6129 43.5122 15.0351V21.4503H39.9743V8.90102L39.974 8.90113Z" fill="#CC5520"/>
<path d="M62.7024 1.19104C63.8573 1.19104 64.7664 2.23238 64.7664 3.55483C64.7664 4.87716 63.8573 5.91815 62.7024 5.91815C61.5476 5.91815 60.6386 4.87716 60.6386 3.55483C60.6386 2.23238 61.5476 1.19104 62.7024 1.19104ZM64.7664 9.1418V21.6911L60.9335 21.45V8.90063L64.7664 9.1418Z" fill="#CC5520"/>
<path d="M67.4683 8.90032H71.0062V10.3916C72.0875 8.81608 73.3652 8.56262 74.3969 8.56262C75.3552 8.56262 76.6084 8.75959 77.5419 9.82894C78.574 11.0107 78.6475 12.5018 78.6475 13.5152V21.4496H75.1096V15.0065C75.1096 14.1905 75.0852 13.1491 74.5199 12.502C74.2496 12.1924 73.8073 11.9393 73.1687 11.9393C72.4313 11.9393 71.9644 12.277 71.6943 12.6146C71.1044 13.29 71.0062 14.1905 71.0062 15.0065V21.4496H67.4683V8.90032Z" fill="#CC5520"/>
<path d="M93.341 21.4504H89.803V19.9311C89.2626 20.8312 88.2796 21.8726 86.3389 21.8726C84.717 21.8726 83.5378 21.2815 82.5796 20.1559C81.4494 18.8615 80.8597 17.0608 80.8597 15.1192C80.8597 13.0374 81.5229 11.3207 82.5796 10.1671C83.5378 9.12614 84.8891 8.47899 86.3881 8.47899C87.5919 8.47899 88.9187 8.92929 89.8032 10.3079V0.938232H93.3411V21.4501L93.341 21.4504ZM85.3559 12.8123C84.8398 13.3752 84.4959 14.1912 84.4959 15.2041C84.4959 16.1327 84.8398 16.9482 85.3559 17.5113C85.8963 18.1023 86.5845 18.3834 87.1988 18.3834C87.8618 18.3834 88.6483 18.0738 89.2134 17.4551C89.6312 17.0048 90.0242 16.2451 90.0242 15.2042C90.0242 14.1347 89.6556 13.4033 89.2378 12.8969C88.673 12.2216 88.0095 11.9683 87.248 11.9683C86.5353 11.9683 85.921 12.1932 85.3559 12.8124V12.8123Z" fill="#CC5520"/>
<path d="M107.52 15.8785H99.3377C99.3377 16.5538 99.5586 17.4543 100.001 18.017C100.542 18.6923 101.279 18.8049 101.819 18.8049C102.335 18.8049 102.876 18.6921 103.245 18.439C103.294 18.4106 103.711 18.1015 104.006 17.3977L107.348 17.7919C106.856 19.5642 105.873 20.4928 105.235 20.9432C104.178 21.6745 102.999 21.8718 101.77 21.8718C100.124 21.8718 98.6743 21.5341 97.3966 20.071C96.4384 18.9735 95.7505 17.3135 95.7505 15.2311C95.7505 13.4304 96.3153 11.5735 97.4213 10.279C98.7478 8.75949 100.394 8.47827 101.623 8.47827C102.851 8.47827 104.62 8.73136 105.972 10.3633C107.274 11.9391 107.52 13.9087 107.52 15.456V15.8783V15.8785ZM104.252 13.4586C104.227 13.3459 104.055 12.5585 103.539 11.9954C103.146 11.5736 102.581 11.2921 101.868 11.2921C100.959 11.2921 100.418 11.7143 100.075 12.1081C99.8046 12.4457 99.5586 12.8959 99.4603 13.4586H104.252Z" fill="white"/>
<path d="M121.672 21.4504H118.134V19.9311C117.593 20.8312 116.61 21.8726 114.67 21.8726C113.048 21.8726 111.869 21.2815 110.91 20.1559C109.78 18.8615 109.19 17.0608 109.19 15.1192C109.19 13.0374 109.853 11.3207 110.91 10.1671C111.869 9.12614 113.22 8.47899 114.719 8.47899C115.923 8.47899 117.249 8.92929 118.134 10.3079V0.938232H121.672V21.4501L121.672 21.4504ZM113.687 12.8123C113.171 13.3752 112.827 14.1912 112.827 15.2041C112.827 16.1327 113.171 16.9482 113.687 17.5113C114.227 18.1023 114.915 18.3834 115.529 18.3834C116.192 18.3834 116.979 18.0738 117.544 17.4551C117.962 17.0048 118.355 16.2451 118.355 15.2042C118.355 14.1347 117.986 13.4033 117.568 12.8969C117.004 12.2216 116.34 11.9683 115.579 11.9683C114.866 11.9683 114.252 12.1932 113.687 12.8124V12.8123Z" fill="white"/>
</svg>
